<svg xmlns="http://www.w3.org/2000/svg">
    <path id="instagram" d="M15.6515 2.1001H5.34841C3.55685 2.1001 2.09998 3.5564 2.09998 5.34727V8.77811V15.6529C2.09998 17.4438 3.55685 18.9001 5.34841 18.9001H15.6515C17.4431 18.9001 18.9 17.4438 18.9 15.6529V8.77156V5.34071C18.8934 3.5564 17.4365 2.1001 15.6515 2.1001ZM16.5834 4.03528H16.9575V4.40264V6.88229L14.1159 6.88885L14.1094 4.04184L16.5834 4.03528ZM8.0981 8.77156C8.63622 8.03028 9.50904 7.53829 10.4934 7.53829C11.4778 7.53829 12.3506 8.02372 12.8887 8.77156C13.2431 9.25699 13.4465 9.85394 13.4465 10.4968C13.4465 12.1237 12.1209 13.4554 10.4869 13.4554C8.85279 13.4554 7.54029 12.1237 7.54029 10.4968C7.54029 9.85394 7.75029 9.25699 8.0981 8.77156ZM17.2593 15.6464C17.2593 16.532 16.5375 17.2536 15.6515 17.2536H5.34841C4.46248 17.2536 3.7406 16.532 3.7406 15.6464V8.77156H6.24748C6.03091 9.30291 5.90623 9.88674 5.90623 10.4968C5.90623 13.029 7.96685 15.0888 10.5 15.0888C13.0331 15.0888 15.0937 13.029 15.0937 10.4968C15.0937 9.88674 14.969 9.30291 14.7525 8.77156H17.2593V15.6464Z" />
    <path id="telegram" d="M18.9057 4.76449L16.3705 16.7208C16.1791 17.5644 15.6804 17.7745 14.9717 17.3772L11.1085 14.5305L9.24472 16.3235C9.0383 16.5299 8.86608 16.7022 8.46824 16.7022L8.74607 12.7681L15.9054 6.29885C16.2169 6.02162 15.8376 5.86741 15.4218 6.14524L6.57084 11.7186L2.76043 10.5257C1.93174 10.2671 1.91674 9.69701 2.93325 9.29917L17.837 3.55716C18.5271 3.29854 19.1308 3.71018 18.9057 4.76449Z"/>
    <path id="vk" d="M18.1696 13.9941C17.8038 13.5391 17.3881 13.1314 16.9861 12.737C16.8432 12.5968 16.6954 12.4518 16.5529 12.3076C16.1439 11.8932 16.129 11.7375 16.4529 11.2668C16.6769 10.9424 16.9145 10.6175 17.1442 10.3033C17.3526 10.0183 17.5681 9.72351 17.7746 9.42777L17.817 9.36697C18.2117 8.80103 18.6199 8.21583 18.8372 7.50988C18.8936 7.32363 18.9528 7.04955 18.8174 6.82036C18.682 6.59137 18.4195 6.52151 18.2337 6.48888C18.1418 6.47273 18.0506 6.47053 17.9659 6.47053L15.3809 6.46861L15.3596 6.46842C14.9687 6.46842 14.7053 6.65927 14.5544 7.05194C14.4103 7.42713 14.252 7.82665 14.0714 8.20653C13.7119 8.96298 13.2554 9.83425 12.5948 10.5609L12.5669 10.5918C12.4889 10.6787 12.4005 10.777 12.3359 10.777C12.326 10.777 12.3153 10.7751 12.3031 10.7711C12.1662 10.7159 12.0744 10.3726 12.0785 10.213C12.0786 10.2108 12.0786 10.2086 12.0786 10.2064L12.0768 7.1105C12.0768 7.09976 12.0761 7.08913 12.0748 7.07849C12.009 6.57522 11.8633 6.26195 11.313 6.15026C11.2983 6.14724 11.2834 6.14575 11.2685 6.14575H8.58061C8.14269 6.14575 7.9014 6.33018 7.67458 6.60623C7.61335 6.68002 7.48591 6.83364 7.54908 7.01998C7.61317 7.20911 7.82121 7.24955 7.88896 7.26268C8.22524 7.32899 8.41478 7.54213 8.46847 7.91453C8.56221 8.56121 8.57372 9.25144 8.50473 10.0868C8.48549 10.3189 8.44743 10.4982 8.38473 10.6514C8.37016 10.6872 8.31851 10.8038 8.26584 10.8039C8.2491 10.8039 8.20068 10.7971 8.1125 10.7341C7.90399 10.5861 7.75143 10.3749 7.57358 10.114C6.96854 9.22796 6.46075 8.25191 6.02099 7.12938C5.85789 6.71615 5.55329 6.48481 5.16291 6.478C4.73396 6.47125 4.34506 6.46799 3.97415 6.46799C3.56888 6.46799 3.19315 6.47187 2.82626 6.47978C2.51218 6.48553 2.29494 6.58308 2.18062 6.76996C2.06613 6.95697 2.07357 7.20264 2.20277 7.50001C3.23704 9.88254 4.17479 11.6149 5.24346 13.1171C5.99227 14.1683 6.74334 14.8959 7.60688 15.4068C8.51666 15.9461 9.53622 16.2083 10.7237 16.2083C10.8583 16.2083 10.9975 16.2048 11.1379 16.198C11.8279 16.1632 12.0839 15.9044 12.1163 15.2082C12.1317 14.8525 12.1692 14.4793 12.338 14.1611C12.4446 13.9606 12.5439 13.9606 12.5765 13.9606C12.6394 13.9606 12.7174 13.9906 12.8011 14.0468C12.9513 14.1484 13.0801 14.2845 13.1857 14.4034C13.2851 14.5163 13.3833 14.6304 13.4817 14.7446C13.6939 14.9909 13.9134 15.2456 14.1427 15.4871C14.6445 16.0162 15.1973 16.2488 15.8323 16.1983H18.2023C18.2074 16.1983 18.2125 16.1981 18.2175 16.1978C18.4537 16.1817 18.6582 16.0459 18.7786 15.8254C18.9279 15.5522 18.9249 15.2037 18.7706 14.893C18.5956 14.5415 18.3685 14.2413 18.1696 13.9941Z" />
    <g id="linkedin">
        <path d="M5.80637 7.88647H2.53296V18.3627H5.80637V7.88647Z" />
        <path d="M4.10076 2.94019C2.89373 2.94019 2.09998 3.72082 2.09998 4.75729C2.09998 5.77408 2.86749 6.57439 4.05484 6.57439H4.08108C5.31434 6.57439 6.08186 5.76752 6.0753 4.75729C6.04906 3.72082 5.30778 2.94019 4.10076 2.94019Z" />
        <path d="M14.7475 7.78809C12.8714 7.78809 11.6971 8.81144 11.4807 9.53303V7.88648H7.80054C7.84646 8.75896 7.80054 18.3627 7.80054 18.3627H11.4807V12.7015C11.4807 12.38 11.4675 12.0652 11.5594 11.8421C11.8087 11.2124 12.3531 10.5564 13.3306 10.5564C14.6098 10.5564 15.187 11.5273 15.187 12.9442V18.3627H18.9V12.5375C18.9 9.29687 17.0763 7.78809 14.7475 7.78809Z" />
    </g>
</svg>